<?xml version="1.0" encoding="UTF-8" standalone="no"?>
<svg
   viewBox="0 0 512 512"
   version="1.1"
   id="svg4"
   sodipodi:docname="circle-xmark-regular.svg"
   inkscape:version="1.2.2 (732a01da63, 2022-12-09)"
   xmlns:inkscape="http://www.inkscape.org/namespaces/inkscape"
   xmlns:sodipodi="http://sodipodi.sourceforge.net/DTD/sodipodi-0.dtd"
   xmlns="http://www.w3.org/2000/svg"
   xmlns:svg="http://www.w3.org/2000/svg">
  <defs
     id="defs8" />
  <sodipodi:namedview
     id="namedview6"
     pagecolor="#ffffff"
     bordercolor="#000000"
     borderopacity="0.25"
     inkscape:showpageshadow="2"
     inkscape:pageopacity="0.0"
     inkscape:pagecheckerboard="0"
     inkscape:deskcolor="#d1d1d1"
     showgrid="false"
     inkscape:zoom="1.6191406"
     inkscape:cx="256.61761"
     inkscape:cy="256.30881"
     inkscape:window-width="1920"
     inkscape:window-height="1009"
     inkscape:window-x="-8"
     inkscape:window-y="-8"
     inkscape:window-maximized="1"
     inkscape:current-layer="svg4" />
  <!--! Font Awesome Pro 6.4.0 by @fontawesome - https://fontawesome.com License - https://fontawesome.com/license (Commercial License) Copyright 2023 Fonticons, Inc. -->
  <path
     d="m 256,89.6 a 166.4,166.4 0 1 1 0,332.8 166.4,166.4 0 1 1 0,-332.8 z m 0,371.2 a 204.8,204.8 0 1 0 0,-409.6 204.8,204.8 0 1 0 0,409.6 z M 191.2,191.2 c -7.52,7.52 -7.52,19.68 0,27.12 l 37.6,37.6 -37.6,37.6 c -7.52,7.52 -7.52,19.68 0,27.12 7.52,7.44 19.68,7.52 27.12,0 l 37.6,-37.6 37.6,37.6 c 7.52,7.52 19.68,7.52 27.12,0 7.44,-7.52 7.52,-19.68 0,-27.12 l -37.6,-37.6 37.6,-37.6 c 7.52,-7.52 7.52,-19.68 0,-27.12 -7.52,-7.44 -19.68,-7.52 -27.12,0 l -37.6,37.6 -37.6,-37.6 c -7.52,-7.52 -19.68,-7.52 -27.12,0 z"
     id="path2"
     style="stroke-width:0.8" />
</svg>
