<?xml version="1.0" encoding="UTF-8" standalone="no"?>
<svg
   viewBox="0 0 512 512"
   version="1.1"
   id="svg4"
   sodipodi:docname="edit.svg"
   inkscape:version="1.2.2 (732a01da63, 2022-12-09)"
   xmlns:inkscape="http://www.inkscape.org/namespaces/inkscape"
   xmlns:sodipodi="http://sodipodi.sourceforge.net/DTD/sodipodi-0.dtd"
   xmlns="http://www.w3.org/2000/svg"
   xmlns:svg="http://www.w3.org/2000/svg">
  <defs
     id="defs8" />
  <sodipodi:namedview
     id="namedview6"
     pagecolor="#ffffff"
     bordercolor="#000000"
     borderopacity="0.25"
     inkscape:showpageshadow="2"
     inkscape:pageopacity="0.0"
     inkscape:pagecheckerboard="0"
     inkscape:deskcolor="#d1d1d1"
     showgrid="false"
     inkscape:zoom="1.6191406"
     inkscape:cx="157.79976"
     inkscape:cy="256.30881"
     inkscape:window-width="1920"
     inkscape:window-height="1009"
     inkscape:window-x="-8"
     inkscape:window-y="-8"
     inkscape:window-maximized="1"
     inkscape:current-layer="svg4" />
  <!--! Font Awesome Pro 6.4.0 by @fontawesome - https://fontawesome.com License - https://fontawesome.com/license (Commercial License) Copyright 2023 Fonticons, Inc. -->
  <path
     d="m 427.9525,69.0875 c -17.52,-17.52 -45.84,-17.52 -63.36,0 l -24.08,24 78.32,78.32 24.08,-24.08 c 17.52,-17.52 17.52,-45.84 0,-63.36 z m -239.36,176 c -4.88,4.88 -8.64,10.88 -10.8,17.52 l -23.68,71.04 c -2.32,6.88 -0.48,14.48 4.64,19.68 5.12,5.2 12.72,6.96 19.68,4.64 l 71.04,-23.68 c 6.56,-2.16 12.56,-5.92 17.52,-10.8 l 133.84,-133.92 -78.4,-78.4 z m -61.12,-142.16 c -42.4,0 -76.8,34.4 -76.8,76.8 v 204.8 c 0,42.4 34.4,76.8 76.8,76.8 h 204.8 c 42.4,0 76.8,-34.4 76.8,-76.8 v -76.8 c 0,-14.16 -11.44,-25.6 -25.6,-25.6 -14.16,0 -25.6,11.44 -25.6,25.6 v 76.8 c 0,14.16 -11.44,25.6 -25.6,25.6 h -204.8 c -14.16,0 -25.6,-11.44 -25.6,-25.6 v -204.8 c 0,-14.16 11.44,-25.6 25.6,-25.6 h 76.8 c 14.16,0 25.6,-11.44 25.6,-25.6 0,-14.16 -11.44,-25.6 -25.6,-25.6 z"
     id="path2"
     style="stroke-width:0.8" />
</svg>
