<?xml version="1.0" encoding="UTF-8" standalone="no"?>
<svg
   viewBox="0 0 512 512"
   version="1.1"
   id="svg4"
   sodipodi:docname="landmark.svg"
   inkscape:version="1.2.2 (732a01da63, 2022-12-09)"
   xmlns:inkscape="http://www.inkscape.org/namespaces/inkscape"
   xmlns:sodipodi="http://sodipodi.sourceforge.net/DTD/sodipodi-0.dtd"
   xmlns="http://www.w3.org/2000/svg"
   xmlns:svg="http://www.w3.org/2000/svg">
  <defs
     id="defs8" />
  <sodipodi:namedview
     id="namedview6"
     pagecolor="#ffffff"
     bordercolor="#000000"
     borderopacity="0.25"
     inkscape:showpageshadow="2"
     inkscape:pageopacity="0.0"
     inkscape:pagecheckerboard="0"
     inkscape:deskcolor="#d1d1d1"
     showgrid="false"
     inkscape:zoom="1.2675781"
     inkscape:cx="255.60555"
     inkscape:cy="256.39445"
     inkscape:window-width="1600"
     inkscape:window-height="829"
     inkscape:window-x="-8"
     inkscape:window-y="-8"
     inkscape:window-maximized="1"
     inkscape:current-layer="svg4" />
  <!--! Font Awesome Pro 6.4.0 by @fontawesome - https://fontawesome.com License - https://fontawesome.com/license (Commercial License) Copyright 2023 Fonticons, Inc. -->
  <path
     d="M240.1 4.2c9.8-5.6 21.9-5.6 31.8 0l171.8 98.1L448 104l0 .9 47.9 27.4c12.6 7.2 18.8 22 15.1 36s-16.4 23.8-30.9 23.8H32c-14.5 0-27.2-9.8-30.9-23.8s2.5-28.8 15.1-36L64 104.9V104l4.4-1.6L240.1 4.2zM64 224h64V416h40V224h64V416h48V224h64V416h40V224h64V420.3c.6 .3 1.2 .7 1.8 1.1l48 32c11.7 7.8 17 22.4 12.9 35.9S494.1 512 480 512H32c-14.1 0-26.5-9.2-30.6-22.7s1.1-28.1 12.9-35.9l48-32c.6-.4 1.2-.7 1.8-1.1V224z"
     id="path2"
     style="fill:#e6e6e6" />
</svg>
