<?xml version="1.0" encoding="UTF-8" standalone="no"?>
<svg
   viewBox="0 0 448 512"
   version="1.1"
   id="svg245"
   sodipodi:docname="phone-hover.svg"
   inkscape:version="1.2.2 (732a01da63, 2022-12-09)"
   xmlns:inkscape="http://www.inkscape.org/namespaces/inkscape"
   xmlns:sodipodi="http://sodipodi.sourceforge.net/DTD/sodipodi-0.dtd"
   xmlns="http://www.w3.org/2000/svg"
   xmlns:svg="http://www.w3.org/2000/svg">
  <defs
     id="defs249" />
  <sodipodi:namedview
     id="namedview247"
     pagecolor="#ffffff"
     bordercolor="#000000"
     borderopacity="0.25"
     inkscape:showpageshadow="2"
     inkscape:pageopacity="0.0"
     inkscape:pagecheckerboard="0"
     inkscape:deskcolor="#d1d1d1"
     showgrid="false"
     inkscape:zoom="1.2675781"
     inkscape:cx="224.04931"
     inkscape:cy="256.39446"
     inkscape:window-width="1600"
     inkscape:window-height="829"
     inkscape:window-x="-8"
     inkscape:window-y="-8"
     inkscape:window-maximized="1"
     inkscape:current-layer="svg245" />
  <!--! Font Awesome Pro 6.4.0 by @fontawesome - https://fontawesome.com License - https://fontawesome.com/license (Commercial License) Copyright 2023 Fonticons, Inc. -->
  <path
     style="fill:#ececec;stroke-width:1.3223"
     d="M 357.30007,455.33564 C 266.47068,447.2778 181.49644,410.74177 117.5553,352.25356 51.050398,291.42024 10.945271,211.96485 3.0601073,125.41828 2.2448436,116.47003 1.57781,105.24937 1.57781,100.48342 c 0,-14.584388 5.7440857,-25.141779 16.903867,-31.068629 8.155864,-4.331486 85.838503,-23.658243 95.092763,-23.658243 9.01487,0 20.42505,5.065435 25.75916,11.435507 2.04815,2.445937 12.28817,23.315749 22.7556,46.377365 18.38428,40.50379 19.03054,42.2328 18.99698,50.8245 -0.058,14.84248 -2.21073,17.42853 -35.36173,42.4799 -10.40677,7.86413 -18.9214,14.96388 -18.9214,15.77718 0,2.06622 14.04185,24.86195 21.97392,35.67281 26.72392,36.42275 67.50236,69.85602 108.39523,88.87072 l 9.82572,4.56883 18.04823,-20.322 c 9.92653,-11.1771 19.40771,-21.50851 21.0693,-22.95872 6.21742,-5.42639 13.58879,-7.95889 22.97452,-7.89313 8.28948,0.058 12.06945,1.27097 51.60383,16.55822 23.46253,9.07255 45.23103,17.70741 48.37445,19.1886 11.4754,5.40723 19.73078,19.79101 17.79016,30.99667 -0.47987,2.771 -5.8246,21.71042 -11.87717,42.08758 -12.25183,41.24825 -14.63044,46.15975 -25.31064,52.26312 -6.64346,3.79649 -6.98441,3.84732 -26.7976,3.99284 -11.03769,0.0809 -22.54551,-0.0723 -25.57293,-0.3409 z"
     id="path320" />
</svg>
